<svg xmlns="http://www.w3.org/2000/svg" viewBox="0 0 48 48"><defs><style>.cls-1{fill:#82bcf4;}.cls-2{fill:#6fabe6;}.cls-3{fill:#5b9ad8;}.cls-4{fill:#374f68;}.cls-5{fill:#2c435e;}.cls-6{fill:#425b72;}.cls-7{fill:#edebf2;}.cls-8{fill:#dad7e5;}.cls-9{fill:#db5669;}</style></defs><title>Ecommerce Worldwide</title><g id="Ecommerce_Worldwide" data-name="Ecommerce Worldwide"><path class="cls-1" d="M47,24A23,23,0,0,1,24,47C5.47,47-5.28,26.24,5,11.11A23,23,0,0,1,47,24Z"/><path class="cls-2" d="M40.84,30.16a22.89,22.89,0,0,1-4,12.89A22.91,22.91,0,0,1,24,47C5.47,47-5.28,26.24,5,11.11,20,.9,40.84,11.57,40.84,30.16Z"/><path class="cls-3" d="M20,32H2.43c-.24-.66-.45-1.31-.63-2H20A1,1,0,0,1,20,32Z"/><path class="cls-3" d="M46.2,30c-.18.67-.38,1.32-.63,2H44a1,1,0,0,1,0-2Z"/><path class="cls-3" d="M46.19,18C46,18,49.17,18,1.8,18c.18-.67.39-1.33.63-2H45.57C45.8,16.63,45.93,17,46.19,18Z"/><path class="cls-3" d="M28.55,43.59a32,32,0,0,1-2.83,3.34c-4.5.28-2.15.13,1.21-4.52A1,1,0,0,1,28.55,43.59Z"/><path class="cls-3" d="M34.74,19.88a1,1,0,0,1-2,.24A29.87,29.87,0,0,0,32.2,17C29.61,5.77,22.1,1,23.28,1a20.32,20.32,0,0,1,2.45.05A32.8,32.8,0,0,1,34.74,19.88Z"/><path class="cls-3" d="M24.72,47a20.32,20.32,0,0,1-2.45,0,33,33,0,0,1,0-45.86A22.21,22.21,0,0,1,24.72,1c.07,0,0,.31-.07.38-.23.7-6.5,5.4-8.85,15.6a31.19,31.19,0,0,0,0,14C18.39,42.23,25.9,47,24.72,47Z"/><path class="cls-4" d="M26,39.22C7.76,52.94-3.3,47.15,2.63,32.5c1.24,3.13,1.29,2,1,3-3.94,13.41,9,11.37,21,2.34A7.67,7.67,0,0,0,26,39.22Z"/><path class="cls-4" d="M47,7.85c.24,4-1.81,8.2-3.6,11.78a66.16,66.16,0,0,1-16.27,18.7A8,8,0,0,1,25.74,37C45.27,21.61,52.82-2,35,3.79a20.71,20.71,0,0,0-2.47-1.15A19.49,19.49,0,0,1,39.67,1C44.2,1,46.81,3.68,47,7.85Z"/><path class="cls-5" d="M2.79,36A17.14,17.14,0,0,0,2,40.22c-.57,11.05,16.05,5.43,29.22-8C16.17,46.86-.76,50.42,3.63,35.49c.28-.94.24.14-1-3q-.37.93-.66,1.8C2.44,35.37,2.74,35.88,2.79,36Z"/><path class="cls-6" d="M32.51,2.64c.27.1.53.23.8.34,8.23-2.71,13.52.44,12.57,8-.32,3.56-2.39,7.41-3.5,9.63A65.68,65.68,0,0,1,33,33C52.82,13.26,50.46-4.66,32.51,2.64Z"/><path class="cls-7" d="M40,32a8,8,0,1,1-14.95-3.95C29.08,20.94,40,23.8,40,32Z"/><path class="cls-5" d="M27.11,38.33c-.38.31-.76.6-1.14.89a7.67,7.67,0,0,1-1.34-1.39C26.37,36.56,25.16,36.84,27.11,38.33Z"/><path class="cls-3" d="M25.74,37c-.37.29-.74.58-1.11.85a8,8,0,0,1,1.28-11A7.94,7.94,0,0,0,25.74,37Z"/><path class="cls-3" d="M37.15,38.09A8,8,0,0,1,26,39.22c.38-.29.76-.58,1.14-.89A7.93,7.93,0,0,0,37.15,38.09Z"/><path class="cls-8" d="M36,39c-7,4-15-3.88-10.9-10.9C32.07,24,40,32,36,39Z"/><polygon class="cls-8" points="35 36 29 36 27.8 31.13 35.8 31.13 35 36"/><path class="cls-9" d="M37,30h-.7l-1.43-2.5a1,1,0,0,0-1.74,1L34,30H29.82l1-1.43a1,1,0,0,0-1.64-1.14C27.11,30.39,27.53,30,27,30a1,1,0,0,0,0,2l1,4.24A1,1,0,0,0,29,37h6a1,1,0,0,0,1-.84c.78-4.77.55-4.16,1-4.16A1,1,0,0,0,37,30Zm-2.85,5H29.78l-.7-2.87h5.55Z"/></g></svg>